# xmcd
#
# Track frame offsets:
# 150
# 27510
# 48439
# 76286
# 94534
# 110061
# 125822
# 150811
# 171185
# 194820
# 216474
#
# Disc length: 3442 seconds
#
#
# Revision: 0
# Processed by: cddbd v1.5.1PL0 Copyright (c) Steve Scherf et al.
# Submitted via: FreeRIP 2.942 
#
DISCID=990d700b
DTITLE=Shirley Smith - Shirley Smith Live at the Perth Blues Club
DYEAR=2003
DGENRE=Blues
TTITLE0=Higher and Higher
TTITLE1=Stormy Monday
TTITLE2=(Mama) He Treats Your Daughter Mean
TTITLE3=Natural Woman
TTITLE4=Baby What You Want Me To Do
TTITLE5=People Get Ready
TTITLE6=Something's Got a Hold On Me
TTITLE7=Let the Good Times Roll
TTITLE8=Down On Bended Knee
TTITLE9=Workout
TTITLE10=Bring It On Home To Me
EXTD=
EXTT0=
EXTT1=
EXTT2=
EXTT3=
EXTT4=
EXTT5=
EXTT6=
EXTT7=
EXTT8=
EXTT9=
EXTT10=
PLAYORDER=
